<mxfile host="app.diagrams.net" modified="2024-05-18T14:01:06.463Z" agent="Mozilla/5.0 (Macintosh; Intel Mac OS X 10_15_7) AppleWebKit/537.36 (KHTML, like Gecko) Chrome/124.0.0.0 Safari/537.36" version="24.4.3" etag="NmMYPaV9oQvnWp8HW7iJ" type="github">
  <diagram name="Page-1" id="NEXpg8mMELJVyuJZF_cd">
    <mxGraphModel>
      <root>
        <mxCell id="0" />
        <mxCell id="1" parent="0" />
      </root>
    </mxGraphModel>
  </diagram>
</mxfile>
